<svg width="723" height="64" viewBox="0 0 723 64" fill="none" xmlns="http://www.w3.org/2000/svg">
<mask id="path-1-outside-1_182_10" maskUnits="userSpaceOnUse" x="-5" y="0" width="728" height="122" fill="black">
<rect fill="white" x="-5" width="728" height="122"/>
<path d="M32.912 96.92C23.44 96.92 15.5893 94.9147 9.36 90.904C3.13067 86.8933 -1.22133 81.4747 -3.696 74.648L15.888 63.256C19.216 71.192 25.104 75.16 33.552 75.16C40.5493 75.16 44.048 73.1547 44.048 69.144C44.048 66.4987 42.0427 64.3653 38.032 62.744C36.3253 62.0613 32.5707 60.9093 26.768 59.288C18.576 56.8987 12.0907 53.5707 7.312 49.304C2.53333 44.952 0.144 38.936 0.144 31.256C0.144 22.9787 3.088 16.28 8.976 11.16C14.9493 6.04 22.3733 3.48 31.248 3.48C38.7573 3.48 45.4133 5.22933 51.216 8.728C57.0187 12.2267 61.456 17.304 64.528 23.96L45.328 35.224C42.512 28.568 37.8613 25.24 31.376 25.24C28.6453 25.24 26.5547 25.7947 25.104 26.904C23.7387 28.0133 23.056 29.4213 23.056 31.128C23.056 33.0907 24.08 34.7547 26.128 36.12C28.2613 37.4853 32.3573 39.064 38.416 40.856C42.768 42.136 46.2667 43.3307 48.912 44.44C51.5573 45.5493 54.4587 47.1707 57.616 49.304C60.7733 51.352 63.12 54.04 64.656 57.368C66.192 60.6107 66.96 64.4507 66.96 68.888C66.96 77.6773 63.8453 84.5467 57.616 89.496C51.3867 94.4453 43.152 96.92 32.912 96.92ZM114.443 29.208C122.976 29.208 130.102 32.4507 135.819 38.936C141.622 45.336 144.523 53.3573 144.523 63C144.523 72.6427 141.622 80.7067 135.819 87.192C130.102 93.592 122.976 96.792 114.443 96.792C106.678 96.792 100.619 94.232 96.267 89.112V120.6H75.019V31H96.267V36.888C100.619 31.768 106.678 29.208 114.443 29.208ZM99.979 73.112C102.454 75.672 105.696 76.952 109.707 76.952C113.718 76.952 116.96 75.672 119.435 73.112C121.91 70.552 123.147 67.1813 123.147 63C123.147 58.8187 121.91 55.448 119.435 52.888C116.96 50.328 113.718 49.048 109.707 49.048C105.696 49.048 102.454 50.328 99.979 52.888C97.5043 55.448 96.267 58.8187 96.267 63C96.267 67.1813 97.5043 70.552 99.979 73.112ZM172.713 70.808C174.846 76.0133 179.625 78.616 187.049 78.616C191.657 78.616 195.54 77.1227 198.697 74.136L214.057 84.888C207.742 92.824 198.569 96.792 186.537 96.792C175.7 96.792 166.996 93.6347 160.425 87.32C153.94 80.92 150.697 72.856 150.697 63.128C150.697 53.4853 153.897 45.4213 160.297 38.936C166.697 32.4507 174.846 29.208 184.745 29.208C194.302 29.208 202.196 32.408 208.425 38.808C214.654 45.208 217.769 53.2293 217.769 62.872C217.769 65.688 217.47 68.3333 216.873 70.808H172.713ZM172.457 56.088H197.033C195.326 50.1147 191.316 47.128 185.001 47.128C178.43 47.128 174.249 50.1147 172.457 56.088ZM245.588 70.808C247.721 76.0133 252.5 78.616 259.924 78.616C264.532 78.616 268.415 77.1227 271.572 74.136L286.932 84.888C280.617 92.824 271.444 96.792 259.412 96.792C248.575 96.792 239.871 93.6347 233.3 87.32C226.815 80.92 223.572 72.856 223.572 63.128C223.572 53.4853 226.772 45.4213 233.172 38.936C239.572 32.4507 247.721 29.208 257.62 29.208C267.177 29.208 275.071 32.408 281.3 38.808C287.529 45.208 290.644 53.2293 290.644 62.872C290.644 65.688 290.345 68.3333 289.748 70.808H245.588ZM245.332 56.088H269.908C268.201 50.1147 264.191 47.128 257.876 47.128C251.305 47.128 247.124 50.1147 245.332 56.088ZM344.703 5.39999H365.951V95H344.703V89.112C340.351 94.232 334.292 96.792 326.527 96.792C317.994 96.792 310.826 93.592 305.023 87.192C299.306 80.7067 296.447 72.6427 296.447 63C296.447 53.3573 299.306 45.336 305.023 38.936C310.826 32.4507 317.994 29.208 326.527 29.208C334.292 29.208 340.351 31.768 344.703 36.888V5.39999ZM321.535 73.112C324.01 75.672 327.252 76.952 331.263 76.952C335.274 76.952 338.516 75.672 340.991 73.112C343.466 70.552 344.703 67.1813 344.703 63C344.703 58.8187 343.466 55.448 340.991 52.888C338.516 50.328 335.274 49.048 331.263 49.048C327.252 49.048 324.01 50.328 321.535 52.888C319.06 55.448 317.823 58.8187 317.823 63C317.823 67.1813 319.06 70.552 321.535 73.112ZM411.037 96.92C401.565 96.92 393.714 94.9147 387.485 90.904C381.256 86.8933 376.904 81.4747 374.429 74.648L394.013 63.256C397.341 71.192 403.229 75.16 411.677 75.16C418.674 75.16 422.173 73.1547 422.173 69.144C422.173 66.4987 420.168 64.3653 416.157 62.744C414.45 62.0613 410.696 60.9093 404.893 59.288C396.701 56.8987 390.216 53.5707 385.437 49.304C380.658 44.952 378.269 38.936 378.269 31.256C378.269 22.9787 381.213 16.28 387.101 11.16C393.074 6.04 400.498 3.48 409.373 3.48C416.882 3.48 423.538 5.22933 429.341 8.728C435.144 12.2267 439.581 17.304 442.653 23.96L423.453 35.224C420.637 28.568 415.986 25.24 409.501 25.24C406.77 25.24 404.68 25.7947 403.229 26.904C401.864 28.0133 401.181 29.4213 401.181 31.128C401.181 33.0907 402.205 34.7547 404.253 36.12C406.386 37.4853 410.482 39.064 416.541 40.856C420.893 42.136 424.392 43.3307 427.037 44.44C429.682 45.5493 432.584 47.1707 435.741 49.304C438.898 51.352 441.245 54.04 442.781 57.368C444.317 60.6107 445.085 64.4507 445.085 68.888C445.085 77.6773 441.97 84.5467 435.741 89.496C429.512 94.4453 421.277 96.92 411.037 96.92ZM485.995 96.792C476.267 96.792 468.16 93.5493 461.675 87.064C455.19 80.5787 451.947 72.5573 451.947 63C451.947 53.4427 455.19 45.4213 461.675 38.936C468.16 32.4507 476.267 29.208 485.995 29.208C492.31 29.208 498.027 30.7013 503.147 33.688C508.352 36.6747 512.363 40.6853 515.179 45.72L497.003 56.216C494.699 52.0347 490.987 49.944 485.867 49.944C482.283 49.944 479.296 51.1813 476.907 53.656C474.518 56.0453 473.323 59.16 473.323 63C473.323 66.84 474.518 69.9973 476.907 72.472C479.296 74.8613 482.283 76.056 485.867 76.056C491.158 76.056 494.87 73.9227 497.003 69.656L515.179 80.152C512.363 85.272 508.352 89.3253 503.147 92.312C498.027 95.2987 492.31 96.792 485.995 96.792ZM543.267 42.904C544.462 38.7227 546.851 35.48 550.435 33.176C554.019 30.872 558.03 29.72 562.467 29.72V53.272C557.603 52.504 553.166 53.4 549.155 55.96C545.23 58.52 543.267 62.7013 543.267 68.504V95H522.019V31H543.267V42.904ZM589.719 22.168C587.33 24.5573 584.471 25.752 581.143 25.752C577.815 25.752 574.914 24.5573 572.439 22.168C570.05 19.6933 568.855 16.792 568.855 13.464C568.855 10.136 570.05 7.27733 572.439 4.88799C574.914 2.49866 577.815 1.30399 581.143 1.30399C584.471 1.30399 587.33 2.49866 589.719 4.88799C592.194 7.27733 593.431 10.136 593.431 13.464C593.431 16.792 592.194 19.6933 589.719 22.168ZM570.519 95V31H591.767V95H570.519ZM643.443 29.208C651.976 29.208 659.102 32.4507 664.819 38.936C670.622 45.336 673.523 53.3573 673.523 63C673.523 72.6427 670.622 80.7067 664.819 87.192C659.102 93.592 651.976 96.792 643.443 96.792C635.678 96.792 629.619 94.232 625.267 89.112V120.6H604.019V31H625.267V36.888C629.619 31.768 635.678 29.208 643.443 29.208ZM628.979 73.112C631.454 75.672 634.696 76.952 638.707 76.952C642.718 76.952 645.96 75.672 648.435 73.112C650.91 70.552 652.147 67.1813 652.147 63C652.147 58.8187 650.91 55.448 648.435 52.888C645.96 50.328 642.718 49.048 638.707 49.048C634.696 49.048 631.454 50.328 628.979 52.888C626.504 55.448 625.267 58.8187 625.267 63C625.267 67.1813 626.504 70.552 628.979 73.112ZM721.199 51.352H707.887V69.912C707.887 72.728 708.911 74.4773 710.959 75.16C713.007 75.8427 716.42 76.056 721.199 75.8V95C708.484 96.536 699.524 95.384 694.319 91.544C689.199 87.6187 686.639 80.5787 686.639 70.424V51.352H677.039V31H686.639V19.48L707.887 13.08V31H721.199V51.352Z"/>
</mask>
<path d="M9.36 90.904L9.90134 90.0632L9.36 90.904ZM-3.696 74.648L-4.19882 73.7836L-4.92078 74.2036L-4.63614 74.9888L-3.696 74.648ZM15.888 63.256L16.8102 62.8693L16.3697 61.8189L15.3852 62.3916L15.888 63.256ZM38.032 62.744L38.4068 61.8169L38.4034 61.8155L38.032 62.744ZM26.768 59.288L26.488 60.2481L26.4989 60.2511L26.768 59.288ZM7.312 49.304L6.63864 50.0434L6.64598 50.0499L7.312 49.304ZM8.976 11.16L8.32519 10.4007L8.31982 10.4054L8.976 11.16ZM64.528 23.96L65.034 24.8225L65.8158 24.3639L65.436 23.5409L64.528 23.96ZM45.328 35.224L44.407 35.6136L44.8511 36.6632L45.834 36.0865L45.328 35.224ZM25.104 26.904L24.4966 26.1096L24.4848 26.1186L24.4734 26.1279L25.104 26.904ZM26.128 36.12L25.5733 36.952L25.5811 36.9572L25.5889 36.9623L26.128 36.12ZM38.416 40.856L38.1324 41.8149L38.1338 41.8154L38.416 40.856ZM48.912 44.44L48.5253 45.3622L48.5253 45.3622L48.912 44.44ZM57.616 49.304L57.0561 50.1326L57.0639 50.1378L57.0718 50.143L57.616 49.304ZM64.656 57.368L63.748 57.7871L63.7523 57.7961L64.656 57.368ZM57.616 89.496L56.9939 88.713L56.9939 88.713L57.616 89.496ZM32.912 95.92C23.579 95.92 15.9298 93.9446 9.90134 90.0632L8.81866 91.7448C15.2488 95.8848 23.301 97.92 32.912 97.92V95.92ZM9.90134 90.0632C3.85206 86.1685 -0.357429 80.9236 -2.75586 74.3072L-4.63614 74.9888C-2.08524 82.0258 2.40928 87.6182 8.81866 91.7448L9.90134 90.0632ZM-3.19318 75.5124L16.3908 64.1204L15.3852 62.3916L-4.19882 73.7836L-3.19318 75.5124ZM14.9658 63.6427C16.6891 67.752 19.104 70.8991 22.2411 73.0133C25.3796 75.1283 29.1674 76.16 33.552 76.16V74.16C29.4886 74.16 26.1084 73.2077 23.3589 71.3547C20.608 69.5009 18.4149 66.696 16.8102 62.8693L14.9658 63.6427ZM33.552 76.16C37.1134 76.16 39.9466 75.6554 41.9213 74.5236C43.9794 73.3439 45.048 71.5102 45.048 69.144H43.048C43.048 70.7885 42.3672 71.9627 40.9267 72.7884C39.4027 73.6619 36.9879 74.16 33.552 74.16V76.16ZM45.048 69.144C45.048 65.8639 42.5274 63.4827 38.4068 61.8169L37.6572 63.6711C41.5579 65.248 43.048 67.1334 43.048 69.144H45.048ZM38.4034 61.8155C36.6371 61.109 32.8276 59.9428 27.0371 58.3249L26.4989 60.2511C32.3137 61.8758 36.0136 63.0137 37.6606 63.6725L38.4034 61.8155ZM27.048 58.328C18.9537 55.9672 12.6151 52.6983 7.97802 48.5581L6.64598 50.0499C11.5663 54.443 18.1983 57.8302 26.488 60.248L27.048 58.328ZM7.98533 48.5647C3.45391 44.4378 1.144 38.7123 1.144 31.256H-0.856C-0.856 39.1597 1.61276 45.4662 6.63867 50.0433L7.98533 48.5647ZM1.144 31.256C1.144 23.2481 3.97724 16.8319 9.63218 11.9146L8.31982 10.4054C2.19876 15.7281 -0.856 22.7092 -0.856 31.256H1.144ZM9.62679 11.9193C15.3956 6.97457 22.5795 4.48 31.248 4.48V2.48C22.1672 2.48 14.5031 5.10542 8.32521 10.4007L9.62679 11.9193ZM31.248 4.48C38.5956 4.48 45.0693 6.18962 50.6997 9.58438L51.7323 7.87162C45.7573 4.26904 38.919 2.48 31.248 2.48V4.48ZM50.6997 9.58438C56.3168 12.9712 60.6247 17.8891 63.62 24.3791L65.436 23.5409C62.2873 16.7189 57.7205 11.4821 51.7323 7.87162L50.6997 9.58438ZM64.022 23.0975L44.822 34.3615L45.834 36.0865L65.034 24.8225L64.022 23.0975ZM46.249 34.8344C44.7879 31.3809 42.82 28.7189 40.3099 26.9228C37.7926 25.1214 34.7983 24.24 31.376 24.24V26.24C34.4391 26.24 37.0127 27.0226 39.1461 28.5492C41.2867 30.0811 43.0521 32.4111 44.407 35.6136L46.249 34.8344ZM31.376 24.24C28.5295 24.24 26.1892 24.8153 24.4966 26.1096L25.7115 27.6984C26.9202 26.774 28.7612 26.24 31.376 26.24V24.24ZM24.4734 26.1279C22.8827 27.4203 22.056 29.1096 22.056 31.128H24.056C24.056 29.733 24.5946 28.6063 25.7346 27.6801L24.4734 26.1279ZM22.056 31.128C22.056 33.511 23.3271 35.4546 25.5733 36.952L26.6827 35.2879C24.8329 34.0547 24.056 32.6704 24.056 31.128H22.056ZM25.5889 36.9623C27.8555 38.4129 32.0784 40.0243 38.1324 41.8149L38.6996 39.8971C32.6363 38.1037 28.6672 36.5578 26.6671 35.2777L25.5889 36.9623ZM38.1338 41.8154C42.4682 43.0902 45.9278 44.2729 48.5253 45.3622L49.2987 43.5178C46.6056 42.3884 43.0678 41.1818 38.6982 39.8966L38.1338 41.8154ZM48.5253 45.3622C51.0939 46.4394 53.9367 48.0249 57.0561 50.1326L58.1759 48.4754C54.9806 46.3165 52.0207 44.6593 49.2987 43.5178L48.5253 45.3622ZM57.0718 50.143C60.0751 52.0911 62.2934 54.6354 63.748 57.7871L65.564 56.9489C63.9466 53.4446 61.4715 50.6129 58.1602 48.465L57.0718 50.143ZM63.7523 57.7961C65.2117 60.8771 65.96 64.5645 65.96 68.888H67.96C67.96 64.3368 67.1723 60.3442 65.5597 56.9399L63.7523 57.7961ZM65.96 68.888C65.96 77.4088 62.9574 83.975 56.9939 88.713L58.2381 90.279C64.7333 85.1184 67.96 77.9459 67.96 68.888H65.96ZM56.9939 88.713C50.9868 93.4858 42.9917 95.92 32.912 95.92V97.92C43.3123 97.92 51.7865 95.4049 58.2381 90.279L56.9939 88.713ZM135.819 38.936L135.069 39.5974L135.078 39.6077L135.819 38.936ZM135.819 87.192L135.074 86.5252L135.073 86.5258L135.819 87.192ZM96.267 89.112L97.0289 88.4644L95.267 86.3915V89.112H96.267ZM96.267 120.6V121.6H97.267V120.6H96.267ZM75.019 120.6H74.019V121.6H75.019V120.6ZM75.019 31V30H74.019V31H75.019ZM96.267 31H97.267V30H96.267V31ZM96.267 36.888H95.267V39.6085L97.0289 37.5356L96.267 36.888ZM119.435 73.112L118.716 72.417L118.716 72.417L119.435 73.112ZM119.435 52.888L118.716 53.583L118.716 53.583L119.435 52.888ZM114.443 30.208C122.685 30.208 129.539 33.324 135.069 39.5973L136.569 38.2747C130.665 31.5773 123.268 28.208 114.443 28.208V30.208ZM135.078 39.6077C140.694 45.8019 143.523 53.5745 143.523 63H145.523C145.523 53.1401 142.549 44.8701 136.56 38.2643L135.078 39.6077ZM143.523 63C143.523 72.4253 140.694 80.2435 135.074 86.5252L136.564 87.8588C142.549 81.1698 145.523 72.86 145.523 63H143.523ZM135.073 86.5258C129.544 92.7148 122.69 95.792 114.443 95.792V97.792C123.263 97.792 130.659 94.4692 136.565 87.8582L135.073 86.5258ZM114.443 95.792C106.92 95.792 101.16 93.3248 97.0289 88.4644L95.5051 89.7596C100.078 95.1392 106.435 97.792 114.443 97.792V95.792ZM95.267 89.112V120.6H97.267V89.112H95.267ZM96.267 119.6H75.019V121.6H96.267V119.6ZM76.019 120.6V31H74.019V120.6H76.019ZM75.019 32H96.267V30H75.019V32ZM95.267 31V36.888H97.267V31H95.267ZM97.0289 37.5356C101.16 32.6752 106.92 30.208 114.443 30.208V28.208C106.435 28.208 100.078 30.8608 95.5051 36.2403L97.0289 37.5356ZM99.26 73.807C101.948 76.5874 105.463 77.952 109.707 77.952V75.952C105.93 75.952 102.96 74.7566 100.698 72.417L99.26 73.807ZM109.707 77.952C113.951 77.952 117.466 76.5874 120.154 73.807L118.716 72.417C116.454 74.7566 113.484 75.952 109.707 75.952V77.952ZM120.154 73.807C122.84 71.0284 124.147 67.3922 124.147 63H122.147C122.147 66.9705 120.979 70.0756 118.716 72.417L120.154 73.807ZM124.147 63C124.147 58.6078 122.84 54.9716 120.154 52.193L118.716 53.583C120.979 55.9244 122.147 59.0295 122.147 63H124.147ZM120.154 52.193C117.466 49.4126 113.951 48.048 109.707 48.048V50.048C113.484 50.048 116.454 51.2434 118.716 53.583L120.154 52.193ZM109.707 48.048C105.463 48.048 101.948 49.4126 99.26 52.193L100.698 53.583C102.96 51.2434 105.93 50.048 109.707 50.048V48.048ZM99.26 52.193C96.574 54.9716 95.267 58.6078 95.267 63H97.267C97.267 59.0295 98.4347 55.9244 100.698 53.583L99.26 52.193ZM95.267 63C95.267 67.3922 96.574 71.0284 99.26 73.807L100.698 72.417C98.4347 70.0756 97.267 66.9705 97.267 63H95.267ZM172.713 70.808V69.808H171.222L171.788 71.1872L172.713 70.808ZM198.697 74.136L199.27 73.3168L198.602 72.8491L198.01 73.4095L198.697 74.136ZM214.057 84.888L214.84 85.5106L215.502 84.6786L214.63 84.0688L214.057 84.888ZM160.425 87.32L159.723 88.0318L159.732 88.041L160.425 87.32ZM160.297 38.936L159.585 38.2336L159.585 38.2336L160.297 38.936ZM208.425 38.808L207.708 39.5055L208.425 38.808ZM216.873 70.808V71.808H217.66L217.845 71.0426L216.873 70.808ZM172.457 56.088L171.499 55.8006L171.113 57.088H172.457V56.088ZM197.033 56.088V57.088H198.359L197.995 55.8133L197.033 56.088ZM171.788 71.1872C172.938 73.9949 174.82 76.1269 177.419 77.5422C179.999 78.9473 183.228 79.616 187.049 79.616V77.616C183.446 77.616 180.574 76.9834 178.375 75.7858C176.195 74.5984 174.621 72.8265 173.638 70.4288L171.788 71.1872ZM187.049 79.616C191.896 79.616 196.029 78.0361 199.384 74.8625L198.01 73.4095C195.05 76.2092 191.418 77.616 187.049 77.616V79.616ZM198.124 74.9552L213.484 85.7072L214.63 84.0688L199.27 73.3168L198.124 74.9552ZM213.274 84.2654C207.186 91.9174 198.328 95.792 186.537 95.792V97.792C198.81 97.792 208.299 93.7306 214.84 85.5106L213.274 84.2654ZM186.537 95.792C175.906 95.792 167.468 92.7015 161.118 86.599L159.732 88.041C166.523 94.5678 175.493 97.792 186.537 97.792V95.792ZM161.127 86.6082C154.846 80.4098 151.697 72.6086 151.697 63.128H149.697C149.697 73.1034 153.033 81.4302 159.723 88.0318L161.127 86.6082ZM151.697 63.128C151.697 53.7313 154.805 45.9248 161.009 39.6384L159.585 38.2336C152.989 44.9178 149.697 53.2394 149.697 63.128H151.697ZM161.009 39.6384C167.204 33.3609 175.088 30.208 184.745 30.208V28.208C174.604 28.208 166.19 31.5404 159.585 38.2336L161.009 39.6384ZM184.745 30.208C194.053 30.208 201.682 33.3135 207.708 39.5055L209.142 38.1105C202.71 31.5025 194.551 28.208 184.745 28.208V30.208ZM207.708 39.5055C213.741 45.703 216.769 53.467 216.769 62.872H218.769C218.769 52.9916 215.568 44.713 209.142 38.1105L207.708 39.5055ZM216.769 62.872C216.769 65.6172 216.478 68.1832 215.901 70.5734L217.845 71.0426C218.463 68.4835 218.769 65.7588 218.769 62.872H216.769ZM216.873 69.808H172.713V71.808H216.873V69.808ZM172.457 57.088H197.033V55.088H172.457V57.088ZM197.995 55.8133C197.096 52.6678 195.563 50.2194 193.342 48.566C191.124 46.9137 188.316 46.128 185.001 46.128V48.128C188 48.128 190.356 48.8356 192.148 50.17C193.938 51.5033 195.264 53.5349 196.071 56.3627L197.995 55.8133ZM185.001 46.128C181.565 46.128 178.658 46.9099 176.356 48.5543C174.049 50.2022 172.445 52.6483 171.499 55.8006L173.415 56.3753C174.261 53.5544 175.644 51.5205 177.518 50.1817C179.397 48.8395 181.866 48.128 185.001 48.128V46.128ZM245.588 70.808V69.808H244.097L244.663 71.1872L245.588 70.808ZM271.572 74.136L272.145 73.3168L271.477 72.8491L270.885 73.4095L271.572 74.136ZM286.932 84.888L287.715 85.5106L288.377 84.6786L287.505 84.0688L286.932 84.888ZM233.3 87.32L232.598 88.0318L232.607 88.041L233.3 87.32ZM233.172 38.936L232.46 38.2336L232.46 38.2336L233.172 38.936ZM281.3 38.808L280.583 39.5055L281.3 38.808ZM289.748 70.808V71.808H290.535L290.72 71.0426L289.748 70.808ZM245.332 56.088L244.374 55.8006L243.988 57.088H245.332V56.088ZM269.908 56.088V57.088H271.234L270.87 55.8133L269.908 56.088ZM244.663 71.1872C245.813 73.9949 247.695 76.1269 250.294 77.5422C252.874 78.9473 256.103 79.616 259.924 79.616V77.616C256.321 77.616 253.449 76.9834 251.25 75.7858C249.07 74.5984 247.496 72.8265 246.513 70.4288L244.663 71.1872ZM259.924 79.616C264.771 79.616 268.904 78.0361 272.259 74.8625L270.885 73.4095C267.925 76.2092 264.293 77.616 259.924 77.616V79.616ZM270.999 74.9552L286.359 85.7072L287.505 84.0688L272.145 73.3168L270.999 74.9552ZM286.149 84.2654C280.061 91.9174 271.203 95.792 259.412 95.792V97.792C271.685 97.792 281.174 93.7306 287.715 85.5106L286.149 84.2654ZM259.412 95.792C248.781 95.792 240.343 92.7015 233.993 86.599L232.607 88.041C239.398 94.5678 248.368 97.792 259.412 97.792V95.792ZM234.002 86.6082C227.721 80.4098 224.572 72.6086 224.572 63.128H222.572C222.572 73.1034 225.908 81.4302 232.598 88.0318L234.002 86.6082ZM224.572 63.128C224.572 53.7313 227.68 45.9248 233.884 39.6384L232.46 38.2336C225.864 44.9178 222.572 53.2394 222.572 63.128H224.572ZM233.884 39.6384C240.079 33.3609 247.963 30.208 257.62 30.208V28.208C247.479 28.208 239.065 31.5404 232.46 38.2336L233.884 39.6384ZM257.62 30.208C266.928 30.208 274.557 33.3135 280.583 39.5055L282.017 38.1105C275.585 31.5025 267.426 28.208 257.62 28.208V30.208ZM280.583 39.5055C286.616 45.703 289.644 53.467 289.644 62.872H291.644C291.644 52.9916 288.443 44.713 282.017 38.1105L280.583 39.5055ZM289.644 62.872C289.644 65.6172 289.353 68.1832 288.776 70.5734L290.72 71.0426C291.338 68.4835 291.644 65.7588 291.644 62.872H289.644ZM289.748 69.808H245.588V71.808H289.748V69.808ZM245.332 57.088H269.908V55.088H245.332V57.088ZM270.87 55.8133C269.971 52.6678 268.438 50.2194 266.217 48.566C263.999 46.9137 261.191 46.128 257.876 46.128V48.128C260.875 48.128 263.231 48.8356 265.023 50.17C266.813 51.5033 268.139 53.5349 268.946 56.3627L270.87 55.8133ZM257.876 46.128C254.44 46.128 251.533 46.9099 249.231 48.5543C246.924 50.2022 245.32 52.6483 244.374 55.8006L246.29 56.3753C247.136 53.5544 248.519 51.5205 250.393 50.1817C252.272 48.8395 254.741 48.128 257.876 48.128V46.128ZM344.703 5.39999V4.39999H343.703V5.39999H344.703ZM365.951 5.39999H366.951V4.39999H365.951V5.39999ZM365.951 95V96H366.951V95H365.951ZM344.703 95H343.703V96H344.703V95ZM344.703 89.112H345.703V86.3915L343.941 88.4644L344.703 89.112ZM305.023 87.192L304.273 87.8534L304.282 87.8637L305.023 87.192ZM305.023 38.936L304.278 38.2692L304.277 38.2698L305.023 38.936ZM344.703 36.888L343.941 37.5356L345.703 39.6085V36.888H344.703ZM340.991 73.112L340.272 72.417L340.272 72.417L340.991 73.112ZM340.991 52.888L340.272 53.583L340.272 53.583L340.991 52.888ZM344.703 6.39999H365.951V4.39999H344.703V6.39999ZM364.951 5.39999V95H366.951V5.39999H364.951ZM365.951 94H344.703V96H365.951V94ZM345.703 95V89.112H343.703V95H345.703ZM343.941 88.4644C339.81 93.3248 334.05 95.792 326.527 95.792V97.792C334.535 97.792 340.892 95.1392 345.465 89.7596L343.941 88.4644ZM326.527 95.792C318.28 95.792 311.38 92.7142 305.764 86.5203L304.282 87.8637C310.272 94.4698 317.707 97.792 326.527 97.792V95.792ZM305.773 86.5307C300.236 80.2494 297.447 72.4293 297.447 63H295.447C295.447 72.856 298.376 81.1639 304.273 87.8533L305.773 86.5307ZM297.447 63C297.447 53.5705 300.236 45.796 305.769 39.6022L304.277 38.2698C298.376 44.876 295.447 53.1442 295.447 63H297.447ZM305.768 39.6028C311.385 33.3247 318.285 30.208 326.527 30.208V28.208C317.703 28.208 310.266 31.5766 304.278 38.2692L305.768 39.6028ZM326.527 30.208C334.05 30.208 339.81 32.6752 343.941 37.5356L345.465 36.2403C340.892 30.8608 334.535 28.208 326.527 28.208V30.208ZM345.703 36.888V5.39999H343.703V36.888H345.703ZM320.816 73.807C323.504 76.5874 327.019 77.952 331.263 77.952V75.952C327.486 75.952 324.516 74.7566 322.254 72.417L320.816 73.807ZM331.263 77.952C335.507 77.952 339.022 76.5874 341.71 73.807L340.272 72.417C338.01 74.7566 335.04 75.952 331.263 75.952V77.952ZM341.71 73.807C344.396 71.0284 345.703 67.3922 345.703 63H343.703C343.703 66.9705 342.535 70.0756 340.272 72.417L341.71 73.807ZM345.703 63C345.703 58.6078 344.396 54.9716 341.71 52.193L340.272 53.583C342.535 55.9244 343.703 59.0295 343.703 63H345.703ZM341.71 52.193C339.022 49.4126 335.507 48.048 331.263 48.048V50.048C335.04 50.048 338.01 51.2434 340.272 53.583L341.71 52.193ZM331.263 48.048C327.019 48.048 323.504 49.4126 320.816 52.193L322.254 53.583C324.516 51.2434 327.486 50.048 331.263 50.048V48.048ZM320.816 52.193C318.13 54.9716 316.823 58.6078 316.823 63H318.823C318.823 59.0295 319.991 55.9244 322.254 53.583L320.816 52.193ZM316.823 63C316.823 67.3922 318.13 71.0284 320.816 73.807L322.254 72.417C319.991 70.0756 318.823 66.9705 318.823 63H316.823ZM387.485 90.904L388.026 90.0632L387.485 90.904ZM374.429 74.648L373.926 73.7836L373.204 74.2036L373.489 74.9888L374.429 74.648ZM394.013 63.256L394.935 62.8693L394.495 61.8189L393.51 62.3916L394.013 63.256ZM416.157 62.744L416.532 61.8169L416.528 61.8155L416.157 62.744ZM404.893 59.288L404.613 60.2481L404.624 60.2511L404.893 59.288ZM385.437 49.304L384.764 50.0434L384.771 50.0499L385.437 49.304ZM387.101 11.16L386.45 10.4007L386.445 10.4054L387.101 11.16ZM442.653 23.96L443.159 24.8225L443.941 24.3639L443.561 23.5409L442.653 23.96ZM423.453 35.224L422.532 35.6136L422.976 36.6632L423.959 36.0865L423.453 35.224ZM403.229 26.904L402.622 26.1096L402.61 26.1186L402.598 26.1279L403.229 26.904ZM404.253 36.12L403.698 36.952L403.706 36.9572L403.714 36.9623L404.253 36.12ZM416.541 40.856L416.257 41.8149L416.259 41.8154L416.541 40.856ZM427.037 44.44L426.65 45.3622L426.65 45.3622L427.037 44.44ZM435.741 49.304L435.181 50.1326L435.189 50.1378L435.197 50.143L435.741 49.304ZM442.781 57.368L441.873 57.7871L441.877 57.7961L442.781 57.368ZM435.741 89.496L435.119 88.713L435.119 88.713L435.741 89.496ZM411.037 95.92C401.704 95.92 394.055 93.9446 388.026 90.0632L386.944 91.7448C393.374 95.8848 401.426 97.92 411.037 97.92V95.92ZM388.026 90.0632C381.977 86.1685 377.768 80.9236 375.369 74.3072L373.489 74.9888C376.04 82.0258 380.534 87.6182 386.944 91.7448L388.026 90.0632ZM374.932 75.5124L394.516 64.1204L393.51 62.3916L373.926 73.7836L374.932 75.5124ZM393.091 63.6427C394.814 67.752 397.229 70.8991 400.366 73.0133C403.505 75.1283 407.292 76.16 411.677 76.16V74.16C407.614 74.16 404.233 73.2077 401.484 71.3547C398.733 69.5009 396.54 66.696 394.935 62.8693L393.091 63.6427ZM411.677 76.16C415.238 76.16 418.072 75.6554 420.046 74.5236C422.104 73.3439 423.173 71.5102 423.173 69.144H421.173C421.173 70.7885 420.492 71.9627 419.052 72.7884C417.528 73.6619 415.113 74.16 411.677 74.16V76.16ZM423.173 69.144C423.173 65.8639 420.652 63.4827 416.532 61.8169L415.782 63.6711C419.683 65.248 421.173 67.1334 421.173 69.144H423.173ZM416.528 61.8155C414.762 61.109 410.953 59.9428 405.162 58.3249L404.624 60.2511C410.439 61.8758 414.139 63.0137 415.786 63.6725L416.528 61.8155ZM405.173 58.328C397.079 55.9672 390.74 52.6983 386.103 48.5581L384.771 50.0499C389.691 54.443 396.323 57.8302 404.613 60.248L405.173 58.328ZM386.11 48.5647C381.579 44.4378 379.269 38.7123 379.269 31.256H377.269C377.269 39.1597 379.738 45.4662 384.764 50.0433L386.11 48.5647ZM379.269 31.256C379.269 23.2481 382.102 16.8319 387.757 11.9146L386.445 10.4054C380.324 15.7281 377.269 22.7092 377.269 31.256H379.269ZM387.752 11.9193C393.521 6.97457 400.704 4.48 409.373 4.48V2.48C400.292 2.48 392.628 5.10542 386.45 10.4007L387.752 11.9193ZM409.373 4.48C416.721 4.48 423.194 6.18962 428.825 9.58438L429.857 7.87162C423.882 4.26904 417.044 2.48 409.373 2.48V4.48ZM428.825 9.58438C434.442 12.9712 438.75 17.8891 441.745 24.3791L443.561 23.5409C440.412 16.7189 435.846 11.4821 429.857 7.87162L428.825 9.58438ZM442.147 23.0975L422.947 34.3615L423.959 36.0865L443.159 24.8225L442.147 23.0975ZM424.374 34.8344C422.913 31.3809 420.945 28.7189 418.435 26.9228C415.918 25.1214 412.923 24.24 409.501 24.24V26.24C412.564 26.24 415.138 27.0226 417.271 28.5492C419.412 30.0811 421.177 32.4111 422.532 35.6136L424.374 34.8344ZM409.501 24.24C406.654 24.24 404.314 24.8153 402.622 26.1096L403.836 27.6984C405.045 26.774 406.886 26.24 409.501 26.24V24.24ZM402.598 26.1279C401.008 27.4203 400.181 29.1096 400.181 31.128H402.181C402.181 29.733 402.72 28.6063 403.86 27.6801L402.598 26.1279ZM400.181 31.128C400.181 33.511 401.452 35.4546 403.698 36.952L404.808 35.2879C402.958 34.0547 402.181 32.6704 402.181 31.128H400.181ZM403.714 36.9623C405.981 38.4129 410.203 40.0243 416.257 41.8149L416.825 39.8971C410.761 38.1037 406.792 36.5578 404.792 35.2777L403.714 36.9623ZM416.259 41.8154C420.593 43.0902 424.053 44.2729 426.65 45.3622L427.424 43.5178C424.731 42.3884 421.193 41.1818 416.823 39.8966L416.259 41.8154ZM426.65 45.3622C429.219 46.4394 432.062 48.0249 435.181 50.1326L436.301 48.4754C433.106 46.3165 430.146 44.6593 427.424 43.5178L426.65 45.3622ZM435.197 50.143C438.2 52.0911 440.418 54.6354 441.873 57.7871L443.689 56.9489C442.072 53.4446 439.597 50.6129 436.285 48.465L435.197 50.143ZM441.877 57.7961C443.337 60.8771 444.085 64.5645 444.085 68.888H446.085C446.085 64.3368 445.297 60.3442 443.685 56.9399L441.877 57.7961ZM444.085 68.888C444.085 77.4088 441.082 83.975 435.119 88.713L436.363 90.279C442.858 85.1184 446.085 77.9459 446.085 68.888H444.085ZM435.119 88.713C429.112 93.4858 421.117 95.92 411.037 95.92V97.92C421.437 97.92 429.912 95.4049 436.363 90.279L435.119 88.713ZM461.675 87.064L460.968 87.7711L460.968 87.7711L461.675 87.064ZM461.675 38.936L460.968 38.2289L460.968 38.2289L461.675 38.936ZM503.147 33.688L502.643 34.5518L502.649 34.5554L503.147 33.688ZM515.179 45.72L515.679 46.586L516.533 46.0927L516.052 45.2318L515.179 45.72ZM497.003 56.216L496.127 56.6986L496.62 57.5922L497.503 57.082L497.003 56.216ZM476.907 53.656L477.614 54.3631L477.62 54.3569L477.626 54.3506L476.907 53.656ZM476.907 72.472L476.188 73.1666L476.194 73.1729L476.2 73.1791L476.907 72.472ZM497.003 69.656L497.503 68.79L496.583 68.259L496.109 69.2088L497.003 69.656ZM515.179 80.152L516.055 80.6339L516.527 79.7758L515.679 79.286L515.179 80.152ZM503.147 92.312L502.649 91.4446L502.643 91.4482L503.147 92.312ZM485.995 95.792C476.514 95.792 468.668 92.6424 462.382 86.3569L460.968 87.7711C467.653 94.4562 476.02 97.792 485.995 97.792V95.792ZM462.382 86.3569C456.093 80.0677 452.947 72.3046 452.947 63H450.947C450.947 72.8101 454.286 81.0896 460.968 87.7711L462.382 86.3569ZM452.947 63C452.947 53.6954 456.093 45.9323 462.382 39.6431L460.968 38.2289C454.286 44.9104 450.947 53.1899 450.947 63H452.947ZM462.382 39.6431C468.668 33.3576 476.514 30.208 485.995 30.208V28.208C476.02 28.208 467.653 31.5438 460.968 38.2289L462.382 39.6431ZM485.995 30.208C492.145 30.208 497.686 31.6602 502.643 34.5518L503.651 32.8242C498.368 29.7425 492.475 28.208 485.995 28.208V30.208ZM502.649 34.5554C507.704 37.4557 511.582 41.3381 514.306 46.2082L516.052 45.2318C513.144 40.0326 509 35.8936 503.645 32.8206L502.649 34.5554ZM514.679 44.854L496.503 55.35L497.503 57.082L515.679 46.586L514.679 44.854ZM497.879 55.7334C496.648 53.5001 495.019 51.788 492.982 50.6407C490.948 49.4955 488.564 48.944 485.867 48.944V50.944C488.29 50.944 490.322 51.4378 492 52.3833C493.675 53.3267 495.054 54.7506 496.127 56.6986L497.879 55.7334ZM485.867 48.944C482.024 48.944 478.774 50.2826 476.188 52.9614L477.626 54.3506C479.819 52.0801 482.542 50.944 485.867 50.944V48.944ZM476.2 52.9489C473.597 55.5519 472.323 58.9342 472.323 63H474.323C474.323 59.3858 475.438 56.5388 477.614 54.3631L476.2 52.9489ZM472.323 63C472.323 67.0663 473.597 70.4832 476.188 73.1666L477.626 71.7774C475.439 69.5115 474.323 66.6137 474.323 63H472.323ZM476.2 73.1791C478.789 75.7682 482.036 77.056 485.867 77.056V75.056C482.53 75.056 479.804 73.9544 477.614 71.7649L476.2 73.1791ZM485.867 77.056C488.646 77.056 491.078 76.4951 493.117 75.323C495.163 74.1474 496.753 72.3916 497.897 70.1032L496.109 69.2088C495.119 71.1871 493.787 72.6313 492.121 73.589C490.448 74.5502 488.378 75.056 485.867 75.056V77.056ZM496.503 70.522L514.679 81.018L515.679 79.286L497.503 68.79L496.503 70.522ZM514.303 79.6701C511.578 84.6248 507.7 88.5467 502.649 91.4446L503.645 93.1794C509.005 90.104 513.148 85.9192 516.055 80.6339L514.303 79.6701ZM502.643 91.4482C497.686 94.3398 492.145 95.792 485.995 95.792V97.792C492.475 97.792 498.368 96.2575 503.651 93.1758L502.643 91.4482ZM543.267 42.904H542.267L544.229 43.1787L543.267 42.904ZM550.435 33.176L550.976 34.0172L550.976 34.0172L550.435 33.176ZM562.467 29.72H563.467V28.72H562.467V29.72ZM562.467 53.272L562.311 54.2598L563.467 54.4423V53.272H562.467ZM549.155 55.96L548.617 55.117L548.609 55.1224L549.155 55.96ZM543.267 95V96H544.267V95H543.267ZM522.019 95H521.019V96H522.019V95ZM522.019 31V30H521.019V31H522.019ZM543.267 31H544.267V30H543.267V31ZM544.229 43.1787C545.358 39.2258 547.601 36.1868 550.976 34.0172L549.894 32.3348C546.101 34.7732 543.565 38.2196 542.305 42.6293L544.229 43.1787ZM550.976 34.0172C554.392 31.8213 558.213 30.72 562.467 30.72V28.72C557.846 28.72 553.646 29.9227 549.894 32.3348L550.976 34.0172ZM561.467 29.72V53.272H563.467V29.72H561.467ZM562.623 52.2842C557.527 51.4796 552.841 52.4207 548.617 55.1171L549.693 56.8029C553.49 54.3793 557.679 53.5284 562.311 54.2598L562.623 52.2842ZM548.609 55.1224C544.331 57.9121 542.267 62.4553 542.267 68.504H544.267C544.267 62.9473 546.128 59.1279 549.701 56.7976L548.609 55.1224ZM542.267 68.504V95H544.267V68.504H542.267ZM543.267 94H522.019V96H543.267V94ZM523.019 95V31H521.019V95H523.019ZM522.019 32H543.267V30H522.019V32ZM542.267 31V42.904H544.267V31H542.267ZM589.719 22.168L590.426 22.8751L590.426 22.8751L589.719 22.168ZM572.439 22.168L571.72 22.8626L571.732 22.8752L571.744 22.8874L572.439 22.168ZM572.439 4.88799L571.744 4.16859L571.738 4.17468L571.732 4.18089L572.439 4.88799ZM589.719 4.88799L589.012 5.5951L589.018 5.6013L589.024 5.60739L589.719 4.88799ZM570.519 95H569.519V96H570.519V95ZM570.519 31V30H569.519V31H570.519ZM591.767 31H592.767V30H591.767V31ZM591.767 95V96H592.767V95H591.767ZM589.012 21.4609C586.807 23.6659 584.201 24.752 581.143 24.752V26.752C584.741 26.752 587.852 25.4487 590.426 22.8751L589.012 21.4609ZM581.143 24.752C578.084 24.752 575.429 23.6647 573.134 21.4486L571.744 22.8874C574.399 25.45 577.546 26.752 581.143 26.752V24.752ZM573.158 21.4734C570.942 19.1782 569.855 16.5233 569.855 13.464H567.855C567.855 17.0607 569.157 20.2085 571.72 22.8626L573.158 21.4734ZM569.855 13.464C569.855 10.4057 570.941 7.80012 573.146 5.5951L571.732 4.18089C569.158 6.75453 567.855 9.86625 567.855 13.464H569.855ZM573.134 5.60739C575.429 3.39133 578.084 2.30399 581.143 2.30399V0.303993C577.546 0.303993 574.399 1.60599 571.744 4.16859L573.134 5.60739ZM581.143 2.30399C584.201 2.30399 586.807 3.39007 589.012 5.5951L590.426 4.18089C587.852 1.60724 584.741 0.303993 581.143 0.303993V2.30399ZM589.024 5.60739C591.311 7.8154 592.431 10.4174 592.431 13.464H594.431C594.431 9.85461 593.076 6.73925 590.414 4.16859L589.024 5.60739ZM592.431 13.464C592.431 16.5119 591.31 19.163 589.012 21.4609L590.426 22.8751C593.078 20.2237 594.431 17.0721 594.431 13.464H592.431ZM571.519 95V31H569.519V95H571.519ZM570.519 32H591.767V30H570.519V32ZM590.767 31V95H592.767V31H590.767ZM591.767 94H570.519V96H591.767V94ZM664.819 38.936L664.069 39.5974L664.078 39.6077L664.819 38.936ZM664.819 87.192L664.074 86.5252L664.073 86.5258L664.819 87.192ZM625.267 89.112L626.029 88.4644L624.267 86.3915V89.112H625.267ZM625.267 120.6V121.6H626.267V120.6H625.267ZM604.019 120.6H603.019V121.6H604.019V120.6ZM604.019 31V30H603.019V31H604.019ZM625.267 31H626.267V30H625.267V31ZM625.267 36.888H624.267V39.6085L626.029 37.5356L625.267 36.888ZM648.435 73.112L647.716 72.417L647.716 72.417L648.435 73.112ZM648.435 52.888L647.716 53.583L647.716 53.583L648.435 52.888ZM643.443 30.208C651.685 30.208 658.539 33.324 664.069 39.5973L665.569 38.2747C659.665 31.5773 652.268 28.208 643.443 28.208V30.208ZM664.078 39.6077C669.694 45.8019 672.523 53.5745 672.523 63H674.523C674.523 53.1401 671.549 44.8701 665.56 38.2643L664.078 39.6077ZM672.523 63C672.523 72.4253 669.694 80.2435 664.074 86.5252L665.564 87.8588C671.549 81.1698 674.523 72.86 674.523 63H672.523ZM664.073 86.5258C658.544 92.7148 651.69 95.792 643.443 95.792V97.792C652.263 97.792 659.659 94.4692 665.565 87.8582L664.073 86.5258ZM643.443 95.792C635.92 95.792 630.16 93.3248 626.029 88.4644L624.505 89.7596C629.078 95.1392 635.435 97.792 643.443 97.792V95.792ZM624.267 89.112V120.6H626.267V89.112H624.267ZM625.267 119.6H604.019V121.6H625.267V119.6ZM605.019 120.6V31H603.019V120.6H605.019ZM604.019 32H625.267V30H604.019V32ZM624.267 31V36.888H626.267V31H624.267ZM626.029 37.5356C630.16 32.6752 635.92 30.208 643.443 30.208V28.208C635.435 28.208 629.078 30.8608 624.505 36.2403L626.029 37.5356ZM628.26 73.807C630.948 76.5874 634.463 77.952 638.707 77.952V75.952C634.93 75.952 631.96 74.7566 629.698 72.417L628.26 73.807ZM638.707 77.952C642.951 77.952 646.466 76.5874 649.154 73.807L647.716 72.417C645.454 74.7566 642.484 75.952 638.707 75.952V77.952ZM649.154 73.807C651.84 71.0284 653.147 67.3922 653.147 63H651.147C651.147 66.9705 649.979 70.0756 647.716 72.417L649.154 73.807ZM653.147 63C653.147 58.6078 651.84 54.9716 649.154 52.193L647.716 53.583C649.979 55.9244 651.147 59.0295 651.147 63H653.147ZM649.154 52.193C646.466 49.4126 642.951 48.048 638.707 48.048V50.048C642.484 50.048 645.454 51.2434 647.716 53.583L649.154 52.193ZM638.707 48.048C634.463 48.048 630.948 49.4126 628.26 52.193L629.698 53.583C631.96 51.2434 634.93 50.048 638.707 50.048V48.048ZM628.26 52.193C625.574 54.9716 624.267 58.6078 624.267 63H626.267C626.267 59.0295 627.435 55.9244 629.698 53.583L628.26 52.193ZM624.267 63C624.267 67.3922 625.574 71.0284 628.26 73.807L629.698 72.417C627.435 70.0756 626.267 66.9705 626.267 63H624.267ZM721.199 51.352V52.352H722.199V51.352H721.199ZM707.887 51.352V50.352H706.887V51.352H707.887ZM710.959 75.16L711.275 74.2113L711.275 74.2113L710.959 75.16ZM721.199 75.8H722.199V74.745L721.146 74.8014L721.199 75.8ZM721.199 95L721.319 95.9928L722.199 95.8865V95H721.199ZM694.319 91.544L693.711 92.3376L693.718 92.3432L693.725 92.3487L694.319 91.544ZM686.639 51.352H687.639V50.352H686.639V51.352ZM677.039 51.352H676.039V52.352H677.039V51.352ZM677.039 31V30H676.039V31H677.039ZM686.639 31V32H687.639V31H686.639ZM686.639 19.48L686.351 18.5225L685.639 18.7368V19.48H686.639ZM707.887 13.08H708.887V11.7344L707.599 12.1225L707.887 13.08ZM707.887 31H706.887V32H707.887V31ZM721.199 31H722.199V30H721.199V31ZM721.199 50.352H707.887V52.352H721.199V50.352ZM706.887 51.352V69.912H708.887V51.352H706.887ZM706.887 69.912C706.887 71.4316 707.162 72.7649 707.792 73.8412C708.435 74.9394 709.405 75.6961 710.643 76.1087L711.275 74.2113C710.465 73.9412 709.899 73.4819 709.518 72.8308C709.124 72.1577 708.887 71.2084 708.887 69.912H706.887ZM710.643 76.1087C712.885 76.856 716.464 77.0551 721.252 76.7986L721.146 74.8014C716.377 75.0569 713.129 74.8294 711.275 74.2113L710.643 76.1087ZM720.199 75.8V95H722.199V75.8H720.199ZM721.079 94.0072C708.403 95.5386 699.788 94.3357 694.913 90.7393L693.725 92.3487C699.261 96.4323 708.566 97.5334 721.319 95.9928L721.079 94.0072ZM694.927 90.7504C690.169 87.1022 687.639 80.4483 687.639 70.424H685.639C685.639 80.709 688.229 88.1351 693.711 92.3376L694.927 90.7504ZM687.639 70.424V51.352H685.639V70.424H687.639ZM686.639 50.352H677.039V52.352H686.639V50.352ZM678.039 51.352V31H676.039V51.352H678.039ZM677.039 32H686.639V30H677.039V32ZM687.639 31V19.48H685.639V31H687.639ZM686.927 20.4375L708.175 14.0375L707.599 12.1225L686.351 18.5225L686.927 20.4375ZM706.887 13.08V31H708.887V13.08H706.887ZM707.887 32H721.199V30H707.887V32ZM720.199 31V51.352H722.199V31H720.199Z" fill="#D4D4D4" mask="url(#path-1-outside-1_182_10)"/>
</svg>
