<svg width="16" height="17" viewBox="0 0 16 17" fill="none" xmlns="http://www.w3.org/2000/svg">
<circle cx="8" cy="9" r="8" fill="#D9D9D9"/>
<path d="M8.45 15.3096C6.78733 15.3096 5.50307 14.9197 4.5972 14.14C3.7028 13.3488 3.26133 12.1677 3.2728 10.5968H6.0764C6.06493 11.2504 6.25987 11.7492 6.6612 12.0932C7.06253 12.4372 7.6244 12.6092 8.3468 12.6092C8.94307 12.6092 9.4132 12.5117 9.7572 12.3168C10.1012 12.1219 10.2732 11.8237 10.2732 11.4224C10.2732 11.0899 10.0955 10.8491 9.74 10.7C9.396 10.5509 9.052 10.4477 8.708 10.3904C8.364 10.3216 8.15187 10.2815 8.0716 10.27C7.18867 10.098 6.42613 9.8916 5.784 9.6508C5.14187 9.39853 4.60293 9.02013 4.1672 8.5156C3.73147 8.01107 3.5136 7.346 3.5136 6.5204C3.5136 5.6948 3.73147 4.99533 4.1672 4.422C4.60293 3.8372 5.182 3.40147 5.9044 3.1148C6.63827 2.82813 7.4352 2.6848 8.2952 2.6848C9.33867 2.6848 10.2388 2.87973 10.9956 3.2696C11.7639 3.65947 12.3659 4.25 12.8016 5.0412C13.0195 5.4196 13.1513 5.78653 13.1972 6.142C13.2431 6.486 13.266 6.82427 13.266 7.1568H10.4624C10.4624 6.5376 10.2961 6.08467 9.9636 5.798C9.63107 5.49987 9.11507 5.3508 8.4156 5.3508C7.85373 5.3508 7.418 5.44827 7.1084 5.6432C6.7988 5.83813 6.644 6.10187 6.644 6.4344C6.644 6.80133 6.8504 7.0708 7.2632 7.2428C7.676 7.4148 8.19773 7.5696 8.8284 7.7072C9.8604 7.9136 10.6631 8.11427 11.2364 8.3092C11.8212 8.49267 12.3257 8.8252 12.75 9.3068C13.1743 9.7884 13.3864 10.4649 13.3864 11.3364C13.3864 12.162 13.1571 12.8729 12.6984 13.4692C12.2397 14.0655 11.632 14.5241 10.8752 14.8452C10.1299 15.1548 9.32147 15.3096 8.45 15.3096Z" fill="#17B811"/>
</svg>
